<svg xmlns="http://www.w3.org/2000/svg" xmlns:xlink="http://www.w3.org/1999/xlink" version="1.1" x="0px" y="0px" viewBox="0 0 100 125" enable-background="new 0 0 100 100" xml:space="preserve"><path d="M83.989,27.824h-8.897V5H24.907v22.824h-8.897c-4.628,0-8.393,3.765-8.393,8.392v34.766c0,4.628,3.765,8.392,8.393,8.392  h8.897V95h50.185V79.374h8.897c4.628,0,8.393-3.765,8.393-8.392V36.216C92.382,31.589,88.617,27.824,83.989,27.824z M26.95,7.043  h46.1v20.781h-46.1V7.043z M73.05,92.957h-46.1V63.583h46.1V92.957z M89.318,70.982c0,2.938-2.391,5.329-5.329,5.329h-8.897V62.726  h4.454c0.564,0,1.021-0.457,1.021-1.021c0-0.564-0.457-1.021-1.021-1.021h-4.454H24.907h-4.454c-0.564,0-1.021,0.457-1.021,1.021  c0,0.564,0.457,1.021,1.021,1.021h4.454V76.31h-8.897c-2.939,0-5.329-2.391-5.329-5.329V36.216c0-2.938,2.391-5.329,5.329-5.329  h67.978c2.939,0,5.329,2.391,5.329,5.329V70.982z"/><path d="M81.89,40.043h-4.056c-1.104,0-2-0.896-2-2s0.896-2,2-2h4.056c1.104,0,2,0.896,2,2S82.994,40.043,81.89,40.043z"/><path d="M71.162,40.043h-4.056c-1.104,0-2-0.896-2-2s0.896-2,2-2h4.056c1.104,0,2,0.896,2,2S72.267,40.043,71.162,40.043z"/><path d="M60.434,40.043h-4.056c-1.104,0-2-0.896-2-2s0.896-2,2-2h4.056c1.104,0,2,0.896,2,2S61.539,40.043,60.434,40.043z"/><!-- <text x="0" y="115" fill="#000000" font-size="5px" font-weight="bold" font-family="'Helvetica Neue', Helvetica, Arial-Unicode, Arial, Sans-serif">Created by Maxim Kulikov</text><text x="0" y="120" fill="#000000" font-size="5px" font-weight="bold" font-family="'Helvetica Neue', Helvetica, Arial-Unicode, Arial, Sans-serif">from the Noun Project</text> --></svg>