<svg xmlns="http://www.w3.org/2000/svg" xmlns:xlink="http://www.w3.org/1999/xlink" version="1.1" x="0px" y="0px" viewBox="0 0 100 125" enable-background="new 0 0 100 100" xml:space="preserve"><path d="M24.7919922,21.300293H11.1884766v13.6035156h13.6035156V21.300293z M22.7919922,32.9038086h-9.6035156V23.300293h9.6035156  V32.9038086z M91.84375,51.7724609V37.1108398H61.7890625V14.2475586H3.1572266v38.1323242H32.296875v7.5732422h-9.5546875v2  h21.1083984v-2H34.296875v-7.5732422h13.3369141v16.9003906h29.5576172v9.8085938h19.7099609V51.7724609H91.84375z   M5.1572266,50.3798828V16.2475586h54.6318359v20.8632812H47.6337891v13.269043H5.1572266z M49.6337891,67.2802734V39.1108398  H89.84375v12.6616211H77.1914062v15.5078125H49.6337891z M94.9013672,77.0888672H79.1914062V53.7724609h15.7099609V77.0888672z   M11.2744141,38.9799805h27.9931641v2H11.2744141V38.9799805z M11.2744141,43.621582h17.2070312v2H11.2744141V43.621582z   M66.7792969,42.7861328H53.1757812v11.9472656h13.6035156V42.7861328z M64.7792969,52.7333984h-9.6035156v-7.9472656h9.6035156  V52.7333984z M53.2617188,57.9423828h20.9746094v2H53.2617188V57.9423828z M53.2617188,61.9208984H70.46875v2H53.2617188V61.9208984  z M92.3173828,56.7294922H82.0634766v9.0761719h10.2539062V56.7294922z M90.3173828,63.8056641h-6.2539062v-5.0761719h6.2539062  V63.8056641z M82.1923828,68.2070312h9.7070312v2h-9.7070312V68.2070312z M82.4130859,72.2539062h7.9628906v2h-7.9628906V72.2539062  z"/></svg>