<svg xmlns="http://www.w3.org/2000/svg" xmlns:xlink="http://www.w3.org/1999/xlink" version="1.1" x="0px" y="0px" viewBox="0 0 100 125" style="enable-background:new 0 0 100 100;" xml:space="preserve"><g><g><g><path d="M49,65H6c-0.6,0-1-0.4-1-1s0.4-1,1-1h43c0.6,0,1,0.4,1,1S49.6,65,49,65z"/><path d="M45,37v23H10V37H45 M46,35H9c-0.6,0-1,0.4-1,1v25c0,0.6,0.4,1,1,1h37c0.6,0,1-0.4,1-1V36C47,35.4,46.6,35,46,35L46,35z"/></g><g><path d="M80,42v21H65V42H80 M81.4,40H63.9c-0.5,0-0.9,0.4-0.9,0.8v23.4c0,0.4,0.4,0.8,0.9,0.8h17.2c0.5,0,0.9-0.4,0.9-0.8V40.6     C82,40.2,81.7,40,81.4,40L81.4,40z"/></g><path d="M93,47v16h-8V47H93 M94,45H84c-0.6,0-1,0.4-1,1v18c0,0.6,0.4,1,1,1h10c0.6,0,1-0.4,1-1V46C95,45.4,94.6,45,94,45L94,45z"/></g><path d="M78,27c0-1.1-0.9-2-2-2H37c-1.1,0-2,0.9-2,2v7c0.6,0,1.4,0,2,0v-7h39v12c0.6,0,1.4,0,2,0V27z"/><path d="M62,57c0-0.6,0-1.4,0-2H48c0,0.6,0,1.4,0,2h7v6h-4v2h4h2h5v-2h-5v-6H62z"/></g><!-- <text x="0" y="115" fill="#000000" font-size="5px" font-weight="bold" font-family="'Helvetica Neue', Helvetica, Arial-Unicode, Arial, Sans-serif">Created by Guilhem</text><text x="0" y="120" fill="#000000" font-size="5px" font-weight="bold" font-family="'Helvetica Neue', Helvetica, Arial-Unicode, Arial, Sans-serif">from the Noun Project</text> --></svg>