<?xml version="1.0" standalone="no"?>
<!DOCTYPE svg PUBLIC "-//W3C//DTD SVG 1.1//EN" "http://www.w3.org/Graphics/SVG/1.1/DTD/svg11.dtd">
<svg xmlns="http://www.w3.org/2000/svg">
<defs >
<font id="MavenPro" horiz-adv-x="961" ><font-face
    font-family="Maven Pro"
    units-per-em="2048"
    panose-1="2 0 0 0 0 0 0 0 0 0"
    ascent="1976"
    descent="-430"
    alphabetic="0" />
<glyph unicode=" " glyph-name="space" horiz-adv-x="692" />
<glyph unicode="!" glyph-name="exclam" horiz-adv-x="800" d="M299 1366H494L477 334H315L299 1366ZM303 0V174H489V0H303Z" />
<glyph unicode="&quot;" glyph-name="quotedbl" horiz-adv-x="821" d="M166 1384H356L322 973H203L166 1384ZM461 1384H651L614 973H496L461 1384Z" />
<glyph unicode="#" glyph-name="numbersign" horiz-adv-x="1210" d="M145 260V395H328L383 713H203V848H406L444 1069H588L549 848H805L844 1069H987L948 848H1085V713H926L870 395H1028V260H848L809 39H666L705 260H446L410 39H266L305 260H145ZM471 395H727L782
713H526L471 395Z" />
<glyph unicode="$" glyph-name="dollar" horiz-adv-x="1198" d="M158 993Q158 1138 254 1249T553 1380V1589H680V1382Q840 1372 987 1296V1108Q846 1194 680 1198V780Q766 749 825 720T947 641T1042 521T1075 358Q1075 202 972 106T680 -10V-221H553V-14Q360 -8
176 84V281Q356 172 553 166V633Q477 656 435 671T333 717T240 781T183 870T158 993ZM348 993Q348 936 399 899T553 825V1192Q348 1157 348 993ZM680 174Q885 209 885 358Q885 444 832 496T680 588V174Z" />
<glyph unicode="%" glyph-name="percent" horiz-adv-x="1814" d="M145 803T145 981T220 1259T442 1360T664 1260T739 981T665 704T443 604T220 703ZM276 981Q276 848 314 784T442 719T570 783T608 981Q608 1116 570 1179T442 1243T314 1180T276 981ZM410 0L1268
1366H1419L561 0H410ZM1087 385Q1087 561 1162 661T1384 762T1606 662T1681 385Q1681 207 1607 107T1385 6T1162 106T1087 385ZM1219 385Q1219 250 1256 187T1384 123T1512 186T1550 385Q1550 518 1513 582T1385 647T1257 583T1219 385Z" />
<glyph unicode="&amp;" glyph-name="ampersand" horiz-adv-x="1325" d="M111 385Q111 500 165 601T375 793Q248 951 248 1065Q248 1196 341 1290T567 1384Q702 1384 794 1294T887 1073Q887 964 831 890T647 741L913 422Q950 506 967 598H1143Q1116 430 1028 285L1266
0H1038L922 141Q765 -16 548 -16Q546 -16 545 -16Q432 -16 345 23T209 126T136 256T111 385ZM281 379Q281 348 292 314T330 238T414 170T549 143Q705 143 819 266L492 662Q418 623 371 583T307 502T285 438T281 379ZM416 1143T416 1078T530 874Q649 942 685 985T721
1085Q721 1148 678 1190T569 1233Q506 1233 461 1188Z" />
<glyph unicode="&apos;" glyph-name="quotesingle" horiz-adv-x="524" d="M166 1384H356L322 973H203L166 1384Z" />
<glyph unicode="(" glyph-name="parenleft" horiz-adv-x="722" d="M190 627Q190 1067 401 1483H586Q375 1067 375 627Q375 191 586 -231H401Q190 191 190 627Z" />
<glyph unicode=")" glyph-name="parenright" horiz-adv-x="722" d="M133 -231Q344 181 344 627Q344 1076 133 1483H317Q528 1067 528 627Q528 191 317 -231H133Z" />
<glyph unicode="*" glyph-name="asterisk" horiz-adv-x="841" d="M172 1118L334 1188L172 1260L236 1368L375 1268L356 1436H481L467 1268L606 1368L670 1260L510 1188L670 1118L606 1006L467 1108L481 942H356L375 1108L236 1006L172 1118Z" />
<glyph unicode="+" glyph-name="plus" horiz-adv-x="1150" d="M199 545V686H496V983H637V686H932V545H637V250H496V545H199Z" />
<glyph unicode="," glyph-name="comma" horiz-adv-x="667" d="M152 -229L303 172H496L324 -229H152Z" />
<glyph unicode="-" glyph-name="hyphen" horiz-adv-x="950" d="M162 530V690H786V530H162Z" />
<glyph unicode="." glyph-name="period" horiz-adv-x="712" d="M260 0V182H455V0H260Z" />
<glyph unicode="/" glyph-name="slash" horiz-adv-x="870" d="M-29 -201L723 1548H901L147 -201H-29Z" />
<glyph unicode="0" glyph-name="zero" horiz-adv-x="1351" d="M133 684Q133 850 167 978T253 1180T379 1302T524 1366T678 1382Q782 1382 869 1353T1040 1252T1172 1036T1221 684Q1221 516 1187 389T1101 187T975 64T831 0T678 -16T525 0T379 63T253 186T167 389T133
684ZM324 819T324 684T345 450T399 295T482 207T576 165T678 156Q733 156 778 165T872 207T954 295T1008 449T1030 684T1009 917T955 1071T873 1159T778 1201T678 1210Q621 1210 577 1201T482 1159T400 1071T346 918Z" />
<glyph unicode="1" glyph-name="one" horiz-adv-x="925" d="M211 1040V1239L434 1366H641V0H451V1180L211 1040Z" />
<glyph unicode="2" glyph-name="two" horiz-adv-x="1189" d="M158 0V152Q269 236 372 329T582 537T754 772T819 987Q819 1206 516 1206Q332 1206 180 1104V1284Q350 1382 541 1382Q779 1382 892 1267T1006 989Q1006 643 487 190H1020V0H158Z" />
<glyph unicode="3" glyph-name="three" horiz-adv-x="1193" d="M166 63V250Q326 158 500 158Q838 158 838 397T479 637H360V805H475Q770 805 770 1004Q770 1204 478 1204Q476 1204 475 1204Q323 1204 197 1135V1317Q336 1382 493 1382Q496 1382 498 1382Q736 1382
848 1272T961 1004Q961 827 799 731Q1028 629 1028 399Q1028 319 1001 249T915 117T754 20T516 -16Q338 -16 166 63Z" />
<glyph unicode="4" glyph-name="four" horiz-adv-x="1210" d="M78 430V600L678 1366H891V600H1085V430H891V0H700V430H78ZM303 600H700V1094L303 600Z" />
<glyph unicode="5" glyph-name="five" horiz-adv-x="1228" d="M178 739L248 1366H1004V1190H414L381 842Q477 868 580 868Q584 868 588 868Q826 868 949 756T1073 426T949 97T588 -16T186 86V291Q319 166 571 166Q751 166 817 231T883 426Q883 557 814 622T551
688Q401 688 274 639L178 739Z" />
<glyph unicode="6" glyph-name="six" horiz-adv-x="1202" d="M133 627Q133 768 158 883T224 1075T320 1209T432 1299T551 1350T663 1376T758 1382Q864 1382 969 1354V1182Q888 1206 794 1206Q790 1206 786 1206Q606 1206 491 1106T336 819Q447 891 621 891Q861
891 969 763T1077 453Q1077 260 957 122T606 -16Q133 -16 133 627ZM324 616Q326 485 348 392T398 254T471 186T541 159T606 156Q694 156 755 188T842 273T877 368T887 453Q887 717 606 717Q430 717 324 616Z" />
<glyph unicode="7" glyph-name="seven" horiz-adv-x="1189" d="M143 1178V1366H1094V1186L522 0H311L891 1178H143Z" />
<glyph unicode="8" glyph-name="eight" horiz-adv-x="1196" d="M125 416Q125 520 182 604T330 735Q176 833 176 1018Q176 1168 281 1275T606 1382T930 1275T1036 1016Q1036 830 885 737Q1085 632 1085 418Q1085 238 963 111T607 -16T249 112T125 416ZM315 414Q315
377 324 340T361 258T451 186T606 158T760 185T851 258T888 340T897 414Q897 639 606 639T315 414ZM365 1022Q365 991 373 962T403 894T478 834T606 811T734 833T807 894T837 961T846 1022Q846 1208 606 1208Q365 1208 365 1022Z" />
<glyph unicode="9" glyph-name="nine" horiz-adv-x="1212" d="M119 913Q119 1106 239 1244T592 1382Q1063 1382 1063 739Q1063 598 1038 483T972 291T876 157T764 67T645 16T533 -10T438 -16Q332 -16 227 12V184Q312 160 403 160Q406 160 410 160Q590 160 705
260T860 547Q749 475 575 475Q335 475 227 603T119 913ZM309 913Q309 649 592 649Q768 649 874 750Q872 881 850 974T800 1112T727 1180T657 1207T592 1210Q502 1210 441 1178T354 1093T319 998T309 913Z" />
<glyph unicode=":" glyph-name="colon" horiz-adv-x="813" d="M313 94V274H506V94H313ZM313 741V922H506V741H313Z" />
<glyph unicode=";" glyph-name="semicolon" horiz-adv-x="858" d="M184 -229L336 172H528L356 -229H184ZM340 741V922H532V741H340Z" />
<glyph unicode="&lt;" glyph-name="less" horiz-adv-x="1357" d="M246 477V625L1096 1004V823L453 551L1096 279V98L246 477Z" />
<glyph unicode="=" glyph-name="equal" horiz-adv-x="1306" d="M260 365V524H1049V365H260ZM260 698V858H1049V698H260Z" />
<glyph unicode="&gt;" glyph-name="greater" horiz-adv-x="1337" d="M270 98V279L911 551L270 823V1004L1118 625V477L270 98Z" />
<glyph unicode="?" glyph-name="question" horiz-adv-x="1042" d="M164 1083V1286Q314 1382 485 1382Q600 1382 685 1349T817 1257T886 1131T909 985Q909 903 879 839T803 732L713 649Q668 608 637 549T606 414V344H426V420Q426 524 456 604T532 731T622 817T696
898T727 987Q727 1206 469 1206Q303 1206 164 1083ZM416 0V186H616V0H416Z" />
<glyph unicode="@" glyph-name="at" horiz-adv-x="1869" d="M170 371Q170 555 249 719T453 992T733 1166T1044 1231Q1126 1231 1215 1210T1396 1136T1558 1010T1676 822T1722 567Q1722 438 1689 328T1575 139T1382 61Q1245 61 1196 188Q1106 61 903 61Q760 61
676 125T592 301Q592 352 608 397T668 492T806 572T1038 602Q1122 602 1180 594Q1180 598 1181 609T1182 627Q1182 662 1176 686T1150 736T1087 774T977 786Q846 786 725 737L743 866Q878 911 995 911Q1151 911 1234 839T1317 627Q1317 574 1308 498L1292 373Q1288
336 1288 299Q1288 287 1288 274Q1290 225 1314 202T1391 178Q1479 178 1542 275T1606 563Q1606 706 1550 818T1404 991T1221 1083T1036 1114Q852 1114 679 1016T395 743T283 365Q283 238 328 136T437 -26T583 -126T727 -180T842 -195Q1092 -195 1284 -92L1266
-225Q1082 -307 838 -307Q756 -307 669 -285T492 -210T331 -82T215 111T170 371ZM725 305Q725 197 900 197Q901 197 903 197Q1044 197 1091 248T1153 401Q1157 450 1161 475Q1106 481 1038 481Q725 481 725 305Z" />
<glyph unicode="A" glyph-name="A" horiz-adv-x="1359" d="M43 0L588 1366H774L1317 0H1112L965 385H395L248 0H43ZM463 561H897L680 1128L463 561Z" />
<glyph unicode="B" glyph-name="B" horiz-adv-x="1280" d="M178 0V1366H651Q790 1366 885 1329T1024 1231T1083 1113T1100 993Q1100 934 1084 884T1044 804T996 753T954 723L938 715L964 704Q980 698 1021 672T1094 613T1153 521T1180 391Q1180 323 1162 264T1096
141T946 38T690 0H178ZM369 168L678 170Q836 170 912 223T989 399Q989 526 905 572T664 618H369V168ZM369 788H649Q776 788 842 830T909 987Q909 1104 839 1150T631 1196H369V788Z" />
<glyph unicode="C" glyph-name="C" horiz-adv-x="1286" d="M125 516T125 684T164 979T264 1181T413 1304T583 1368T760 1384Q973 1384 1178 1303V1126Q985 1212 782 1212Q540 1212 431 1088T322 684Q322 408 431 282T782 156Q985 156 1178 242V66Q973 -16 760
-16Q666 -16 583 0T413 63T265 186T164 389Z" />
<glyph unicode="D" glyph-name="D" horiz-adv-x="1380" d="M178 0V1366H614Q929 1366 1092 1192T1255 682T1093 173T614 0H178ZM369 168H584Q834 168 950 292T1067 682Q1067 950 951 1074T584 1198H369V168Z" />
<glyph unicode="E" glyph-name="E" horiz-adv-x="1187" d="M178 0V1366H1069V1188H369V772H985V594H369V178H1069V0H178Z" />
<glyph unicode="F" glyph-name="F" horiz-adv-x="1124" d="M178 0V1366H1038V1188H369V772H958V594H369V0H178Z" />
<glyph unicode="G" glyph-name="G" horiz-adv-x="1386" d="M125 684Q125 850 164 978T264 1180T412 1302T581 1366T760 1382Q987 1382 1190 1303V1128Q991 1210 778 1210Q704 1210 646 1201T524 1159T416 1071T344 918T315 684T344 450T416 295T524 207T649 165T782
156Q917 156 1057 195V580H778V758H1241V92Q1014 -16 765 -16Q762 -16 760 -16Q664 -16 581 0T412 63T265 186T164 389T125 684Z" />
<glyph unicode="H" glyph-name="H" horiz-adv-x="1388" d="M178 0V1366H367V772H1022V1366H1210V0H1022V594H367V0H178Z" />
<glyph unicode="I" glyph-name="I" horiz-adv-x="544" d="M178 0V1366H367V0H178Z" />
<glyph unicode="J" glyph-name="J" horiz-adv-x="931" d="M61 66V264Q180 168 330 168Q447 168 504 217T561 403V1366H750V416Q750 283 710 191T604 56T477 -2T348 -18Q190 -18 61 66Z" />
<glyph unicode="K" glyph-name="K" horiz-adv-x="1380" d="M178 0V1366H367V705L993 1366H1233L653 748L1284 0H1049L528 614L367 442V0H178Z" />
<glyph unicode="L" glyph-name="L" horiz-adv-x="1089" d="M178 0V1366H367V178H1047V0H178Z" />
<glyph unicode="M" glyph-name="M" horiz-adv-x="1665" d="M178 0V1366H383L831 776L1282 1366H1487V0H1298V1077L831 465L367 1077V0H178Z" />
<glyph unicode="N" glyph-name="N" horiz-adv-x="1511" d="M178 0V1366H395L1159 279V1366H1350V0H1139L369 1094V0H178Z" />
<glyph unicode="O" glyph-name="O" horiz-adv-x="1529" d="M125 516T125 684T164 979T264 1181T413 1304T583 1368T760 1384T937 1368T1107 1305T1255 1182T1356 979T1395 684T1356 389T1256 187T1107 64T937 0T760 -16T583 0T413 63T265 186T164 389ZM315 819T315
684T343 450T412 295T515 207T633 165T759 156T886 165T1004 207T1108 295T1176 449T1204 684T1177 918T1108 1073T1005 1161T887 1203T760 1212T633 1203T516 1161T412 1073T343 919Z" />
<glyph unicode="P" glyph-name="P" horiz-adv-x="1228" d="M176 0V1366H668Q895 1366 1020 1254T1145 936T1020 619T668 506H367V0H176ZM367 674H651Q833 674 894 744T956 934T895 1123T651 1194H367V674Z" />
<glyph unicode="Q" glyph-name="Q" horiz-adv-x="1529" d="M125 684Q125 850 164 978T264 1180T413 1302T583 1366T760 1382Q856 1382 939 1366T1108 1303T1255 1181T1356 978T1395 684Q1395 502 1350 367T1226 155T1059 40T864 -10Q864 -92 918 -153T1069 -215V-360Q899
-360 789 -259T678 -12Q567 -2 476 34T302 145T172 358T125 684ZM315 819T315 684T343 450T412 295T515 207T634 165T759 156T885 165T1004 207T1109 295T1178 449T1206 684T1179 917T1110 1071T1006 1159T887 1201T760 1210T633 1201T516 1159T412 1071T343 918Z"
/>
<glyph unicode="R" glyph-name="R" horiz-adv-x="1298" d="M178 0V1366H682Q911 1366 1042 1259T1174 952Q1174 784 1087 685T868 549L1231 0H1006L676 518H369V0H178ZM369 698H674Q852 698 917 767T983 946Q983 1196 666 1196H369V698Z" />
<glyph unicode="S" glyph-name="S" horiz-adv-x="1155" d="M125 993Q125 1155 241 1268T602 1382Q786 1382 954 1296V1108Q804 1198 625 1198Q315 1198 315 993Q315 938 369 897T504 832T679 768T854 685T988 556T1042 358Q1042 182 911 83T549 -16Q344 -16 143
84V281Q333 166 532 166Q851 166 852 358Q852 440 798 498Q744 556 664 582L488 641Q392 674 313 708T179 816T125 993Z" />
<glyph unicode="T" glyph-name="T" horiz-adv-x="1163" d="M25 1188V1366H1137V1188H674V0H485V1188H25Z" />
<glyph unicode="U" glyph-name="U" horiz-adv-x="1474" d="M178 563V1366H369V547Q369 346 459 250T737 154T1016 250T1106 547V1366H1296V563Q1296 287 1150 135T738 -18T325 134T178 563Z" />
<glyph unicode="V" glyph-name="V" horiz-adv-x="1288" d="M25 1366H227L643 240L1061 1366H1264L739 0H549L25 1366Z" />
<glyph unicode="W" glyph-name="W" horiz-adv-x="1961" d="M25 1366H223L561 276L897 1366H1059L1397 276L1733 1366H1931L1493 0H1298L979 1026L657 0H463L25 1366Z" />
<glyph unicode="X" glyph-name="X" horiz-adv-x="1253" d="M25 0L514 684L37 1366H268L627 856L985 1366H1217L733 702L1229 0H995L627 526L256 0H25Z" />
<glyph unicode="Y" glyph-name="Y" horiz-adv-x="1275" d="M25 1366H254L637 807L1020 1366H1251L731 612V0H543V610L25 1366Z" />
<glyph unicode="Z" glyph-name="Z" horiz-adv-x="1247" d="M131 0V166L852 1176H152V1366H1098V1196L381 188H1098V0H131Z" />
<glyph unicode="[" glyph-name="bracketleft" horiz-adv-x="784" d="M244 -238V1425H614V1274H401V-86H614V-238H244Z" />
<glyph unicode="\" glyph-name="backslash" horiz-adv-x="802" d="M-76 1548H102L854 -201H678L-76 1548Z" />
<glyph unicode="]" glyph-name="bracketright" horiz-adv-x="780" d="M172 -86H383V1274H172V1425H541V-238H172V-86Z" />
<glyph unicode="^" glyph-name="asciicircum" horiz-adv-x="1146" d="M272 969L487 1413H600L817 969H674L545 1272L416 969H272Z" />
<glyph unicode="_" glyph-name="underscore" horiz-adv-x="1118" d="M0 -49H1118V-164H0V-49Z" />
<glyph unicode="`" glyph-name="grave" horiz-adv-x="491" d="M90 1395H274L401 1155H285L90 1395Z" />
<glyph unicode="a" glyph-name="a" horiz-adv-x="1093" d="M115 322Q115 474 243 559T596 645Q692 645 782 633Q776 762 712 818T500 874Q367 874 217 823V983Q362 1038 526 1038Q739 1038 855 928T971 610V315Q971 282 965 250T934 166T867 77T741 12T547 -16Q434
-16 349 12T221 79T153 169T121 255T115 322ZM301 324Q301 150 547 150Q548 150 550 150Q782 150 782 317V483Q708 495 604 496Q563 496 518 489T421 465T335 412T301 324Z" />
<glyph unicode="b" glyph-name="b" horiz-adv-x="1167" d="M170 315V1411H356V1008Q462 1038 575 1038Q663 1038 739 1017T888 942T1002 783T1044 524Q1044 389 1013 288T935 130T825 39T706 -6T592 -16Q481 -16 398 11T273 77T207 166T176 250T170 315ZM356 303Q356
150 592 150Q645 150 686 163T769 212T833 327T856 524Q856 635 834 707T769 814T682 860T575 872Q460 872 356 829V303Z" />
<glyph unicode="c" glyph-name="c" horiz-adv-x="966" d="M119 256T119 512T243 903T600 1038Q756 1038 901 981V803Q762 870 620 870Q618 870 616 870Q475 870 395 798T315 512Q315 399 338 325T408 214T502 166T616 154Q763 154 901 219V41Q756 -16 600 -16Q367
-16 243 120Z" />
<glyph unicode="d" glyph-name="d" horiz-adv-x="1150" d="M129 524Q129 676 171 782T285 942T434 1016T598 1038Q709 1038 817 1008V1411H1004V315Q1004 282 998 250T967 166T900 77T775 12T582 -16Q523 -16 469 -6T350 39T239 130T161 287T129 524ZM315 524Q315
405 337 327T402 212T485 163T582 150Q818 150 817 303V829Q713 872 598 872Q537 872 492 860T403 814T338 708T315 524Z" />
<glyph unicode="e" glyph-name="e" horiz-adv-x="1136" d="M129 498Q129 1038 580 1038Q581 1038 582 1038Q787 1038 909 904T1032 545Q1032 471 1026 403H322Q356 143 610 143Q817 143 963 219V49Q805 -18 606 -18Q603 -18 600 -18Q510 -18 434 4T286 79T171
238T129 498ZM319 573H844Q840 624 827 670T786 765T706 841T582 870Q453 870 393 804T319 573Z" />
<glyph unicode="f" glyph-name="f" horiz-adv-x="675" d="M82 858V1022H225V1071Q225 1452 565 1452Q622 1452 676 1438V1276Q635 1284 600 1284Q553 1284 529 1280T472 1258T426 1193T412 1071V1022H676V858H412V0H225V858H82Z" />
<glyph unicode="g" glyph-name="g" horiz-adv-x="1101" d="M123 518Q123 756 230 898T561 1040Q747 1040 859 956T971 717V-43Q971 -111 952 -169T886 -282T748 -369T522 -401Q368 -401 219 -358V-180Q364 -225 506 -225Q604 -225 665 -208T750 -158T779 -103T784
-43V47Q680 18 578 18Q359 18 241 147T123 518ZM311 518Q311 319 382 254T578 188Q688 188 784 227V729Q784 752 780 768T758 813T689 857T561 872Q510 872 472 860T394 814T333 706T311 518Z" />
<glyph unicode="h" glyph-name="h" horiz-adv-x="1187" d="M193 0V1411H381V987Q512 1038 651 1038Q841 1038 946 925T1051 602V0H862V608Q862 758 799 808T633 858Q508 858 381 809V0H193Z" />
<glyph unicode="i" glyph-name="i" horiz-adv-x="589" d="M195 1180V1378H395V1180H195ZM201 0V1022H389V0H201Z" />
<glyph unicode="j" glyph-name="j" horiz-adv-x="526" d="M6 -242Q115 -242 148 -195T182 -59V1022H369V-59Q369 -401 6 -401V-242ZM176 1180V1378H375V1180H176Z" />
<glyph unicode="k" glyph-name="k" horiz-adv-x="1204" d="M188 0V1411H375V594L817 1022H1071L627 596L1130 0H881L502 475L375 352V0H188Z" />
<glyph unicode="l" glyph-name="l" horiz-adv-x="602" d="M207 0V1411H395V0H207Z" />
<glyph unicode="m" glyph-name="m" horiz-adv-x="1853" d="M193 0V938Q398 1040 618 1040Q784 1040 891 963Q1084 1040 1266 1040Q1459 1040 1567 939T1675 657V0H1489V670Q1489 758 1446 812T1278 866Q1143 866 1004 809Q1028 744 1028 663Q1028 660 1028 657V0H840V668Q840
758 793 810T604 862Q495 862 381 831V0H193Z" />
<glyph unicode="n" glyph-name="n" horiz-adv-x="1198" d="M168 0V934Q381 1040 604 1040Q797 1040 906 939T1016 659V0H827V672Q827 762 781 814T596 866Q471 866 356 829V0H168Z" />
<glyph unicode="o" glyph-name="o" horiz-adv-x="1161" d="M100 354T100 510T143 774T260 937T411 1013T581 1036T751 1014T903 937T1020 775T1063 510T1020 246T903 83T752 7T582 -16T412 6T260 83T143 245ZM289 625T289 510T311 321T379 210T470 162T581 150T693
162T784 210T851 320T874 510T852 699T784 810T693 858T582 870T470 858T379 810T312 700Z" />
<glyph unicode="p" glyph-name="p" horiz-adv-x="1167" d="M168 -389V709Q168 742 174 774T204 857T271 945T397 1010T592 1038Q649 1038 703 1028T822 983T934 892T1012 735T1044 500Q1044 348 1003 241T888 81T740 7T573 -16Q460 -16 356 14V-389H168ZM356 193Q462
152 573 152Q636 152 680 164T768 210T833 316T856 500Q856 619 834 697T769 812T686 861T592 874Q356 874 356 721V193Z" />
<glyph unicode="q" glyph-name="q" horiz-adv-x="1157" d="M115 500Q115 633 146 734T224 892T334 983T453 1028T565 1038Q676 1038 760 1011T886 945T952 857T983 774T989 709V-389H801V14Q697 -16 584 -16Q494 -16 418 5T271 80T157 240T115 500ZM301 500Q301
389 323 317T389 210T476 164T584 152Q697 152 801 193V721Q801 874 565 874Q512 874 471 861T388 812T324 697T301 500Z" />
<glyph unicode="r" glyph-name="r" horiz-adv-x="702" d="M166 0V936Q422 1038 664 1038V866Q512 864 354 823V0H166Z" />
<glyph unicode="s" glyph-name="s" horiz-adv-x="892" d="M102 733Q102 860 192 949T469 1038Q608 1038 743 971V809Q610 870 492 870Q289 870 289 739Q289 696 343 668T473 618T625 566T756 463T811 285Q811 162 718 73T430 -16Q266 -16 135 55V225Q268 150 418
150Q420 150 422 150Q520 150 571 185T623 276Q623 339 570 377T439 437T286 485T156 573T102 733Z" />
<glyph unicode="t" glyph-name="t" horiz-adv-x="765" d="M49 864V1022H227V1327H414V1022H686V864H414V270Q414 150 565 150Q566 150 567 150Q637 150 686 180V12Q616 -16 546 -16Q544 -16 541 -16Q504 -16 462 -7T362 28T265 120T227 283V864H49Z" />
<glyph unicode="u" glyph-name="u" horiz-adv-x="1208" d="M168 430V1022H354V416Q354 277 413 212T600 147T785 211T844 416V1022H1032V430Q1032 217 919 100T600 -18T282 99T168 430Z" />
<glyph unicode="v" glyph-name="v" horiz-adv-x="1107" d="M66 1022H266L553 225L842 1022H1042L649 0H457L66 1022Z" />
<glyph unicode="w" glyph-name="w" horiz-adv-x="1656" d="M80 1022H287L516 266L741 1022H915L1143 266L1370 1022H1577L1239 0H1053L829 711L604 0H418L80 1022Z" />
<glyph unicode="x" glyph-name="x" horiz-adv-x="1073" d="M57 0L426 510L66 1022H295L537 680L778 1022H1008L647 524L1016 0H786L537 354L287 0H57Z" />
<glyph unicode="y" glyph-name="y" horiz-adv-x="1073" d="M63 1022H264L539 256L809 1022H1010L590 -109Q481 -403 273 -403Q273 -403 272 -403Q204 -403 129 -387V-219Q190 -235 244 -236Q371 -236 449 0L63 1022Z" />
<glyph unicode="z" glyph-name="z" horiz-adv-x="962" d="M92 0V172L612 848H104V1022H852V850L334 176H852V0H92Z" />
<glyph unicode="{" glyph-name="braceleft" horiz-adv-x="763" d="M186 535V672Q295 703 295 799V1112Q295 1268 377 1350T614 1432H631V1274Q547 1274 511 1242T475 1118V811Q475 688 356 604Q475 516 475 395V88Q475 -4 511 -35T631 -68V-225H614Q458 -225 377
-142T295 96V408Q295 504 186 535Z" />
<glyph unicode="|" glyph-name="bar" horiz-adv-x="946" d="M379 -203V1366H567V-203H379Z" />
<glyph unicode="}" glyph-name="braceright" horiz-adv-x="759" d="M156 -68Q240 -66 275 -35T311 88V395Q311 516 430 604Q311 688 311 811V1118Q311 1212 276 1243T156 1274V1432H174Q328 1432 411 1350T494 1112V799Q494 705 600 672V535Q494 502 494 408V96Q494
-60 411 -142T174 -225H156V-68Z" />
<glyph unicode="~" glyph-name="asciitilde" horiz-adv-x="1024" d="M201 473V608Q258 676 324 682Q335 683 346 683Q401 683 452 658L574 597Q624 572 677 572Q689 572 700 574Q766 580 823 647V512Q766 444 700 438Q690 437 679 437Q625 437 574 462L452 522Q401
548 346 548Q335 548 324 547Q258 541 201 473Z" />
<glyph unicode="&#xa1;" glyph-name="exclamdown" horiz-adv-x="788" d="M299 -344L315 686H477L494 -344H299ZM303 848V1022H489V848H303Z" />
<glyph unicode="&#xa2;" glyph-name="cent" horiz-adv-x="976" d="M117 446T117 684T225 1057T539 1208V1366H662V1208Q793 1196 899 1153V975Q776 1032 662 1040V328Q783 336 899 391V213Q782 166 662 158V0H539V158Q334 174 226 310ZM313 866T313 684T372 424T539
330V1038Q433 1022 373 944Z" />
<glyph unicode="&#xa3;" glyph-name="sterling" horiz-adv-x="1155" d="M104 -53V129Q186 195 285 211V571H104V739H285V997Q285 1071 308 1136T380 1258T514 1347T715 1380Q887 1380 1040 1290V1098Q897 1206 733 1206Q469 1206 469 997V739H858V571H469V205Q514
197 608 172T758 137Q792 131 833 131Q861 131 894 134Q973 141 1040 178V-4Q954 -51 854 -51T663 -26T479 22Q423 36 365 36Q327 36 288 30Q190 16 104 -53Z" />
<glyph unicode="&#xa5;" glyph-name="yen" horiz-adv-x="1298" d="M37 1366H266L649 807L1032 1366H1264L829 737H1044V584H743V422H1044V268H743V0H555V268H254V422H555V584H254V737H469L37 1366Z" />
<glyph unicode="&#xa7;" glyph-name="section" horiz-adv-x="1198" d="M131 725Q131 885 356 950Q284 1005 285 1090Q285 1215 385 1299T698 1384Q864 1384 1020 1307V1126Q875 1206 729 1206Q481 1206 481 1081Q481 1050 526 1027T638 988T782 945T926 884T1038
788T1083 643Q1083 553 1019 498T858 418Q930 365 930 287Q930 162 829 73T514 -16Q324 -16 139 90V281Q313 164 487 164Q733 164 733 287Q733 318 688 341T577 381T432 424T288 484T176 580T131 725ZM328 723Q328 690 347 664T409 618T488 584T589 550T690 516Q780
524 833 556T887 637Q887 670 868 695T806 741T726 776T625 810T524 844Q434 836 381 803T328 723Z" />
<glyph unicode="&#xa8;" glyph-name="dieresis" horiz-adv-x="831" d="M162 1155V1329H348V1155H162ZM465 1155V1329H651V1155H465Z" />
<glyph unicode="&#xa9;" glyph-name="copyright" horiz-adv-x="1593" d="M98 391T98 680T302 1173T794 1378T1288 1174T1493 680T1288 188T795 -16T302 187ZM188 680Q188 430 366 252T795 74Q1047 74 1225 252T1403 680Q1403 932 1225 1110T795 1288Q545 1288
367 1110T188 680ZM432 680Q432 801 465 886T555 1013T672 1072T803 1090Q930 1090 1047 1042V938Q934 989 815 989Q674 989 611 917T547 680Q547 518 610 446T815 373Q930 373 1047 422V319Q930 272 803 272Q748 272 700 281T600 318T513 390T455 508T432 680Z"
/>
<glyph unicode="&#xaa;" glyph-name="ordfeminine" horiz-adv-x="813" d="M156 985Q156 1069 227 1117T424 1165Q477 1165 526 1159Q522 1231 487 1262T369 1294Q299 1294 213 1266V1354Q299 1384 385 1384Q504 1384 567 1323T631 1147V983Q631 958 624 934T596
876T523 821T395 799Q332 799 285 814T214 850T176 901T159 948T156 985ZM260 987Q260 891 395 891Q526 891 526 983V1075Q491 1083 428 1083Q395 1083 362 1077T294 1048T260 987Z" />
<glyph unicode="&#xab;" glyph-name="guillemotleft" horiz-adv-x="1171" d="M63 522L410 911H633L268 522L633 131H410L63 522ZM498 522L844 911H1067L702 522L1067 131H844L498 522Z" />
<glyph unicode="&#xac;" glyph-name="logicalnot" horiz-adv-x="1273" d="M199 528V684H1075V324H924V528H199Z" />
<glyph unicode="&#xae;" glyph-name="registered" horiz-adv-x="1593" d="M98 684Q98 973 303 1178T799 1384T1294 1179T1499 684Q1499 393 1295 189T799 -16T303 188T98 684ZM188 684Q188 430 366 252T799 74Q1051 74 1229 252T1407 684Q1407 936 1229 1114T799
1292Q545 1292 367 1114T188 684ZM528 285V1081H823Q956 1081 1033 1019T1110 840Q1110 742 1059 684T932 606L1143 285H1012L819 588H639V285H528ZM639 692H817Q997 692 997 837T813 983H639V692Z" />
<glyph unicode="&#xaf;" glyph-name="overscore" horiz-adv-x="825" d="M176 1180V1303H653V1180H176Z" />
<glyph unicode="&#xb0;" glyph-name="degree" horiz-adv-x="792" d="M168 1143Q168 1254 225 1312T391 1370T557 1312T614 1143Q614 1034 557 976T392 918T226 976T168 1143ZM260 1219T260 1143T291 1034T391 1001T490 1034T520 1143T491 1251T392 1284T291 1252Z" />
<glyph unicode="&#xb1;" glyph-name="plusminus" horiz-adv-x="1214" d="M231 55V205H985V55H231ZM231 612V762H535V1063H684V762H985V612H684V309H535V612H231Z" />
<glyph unicode="&#xb2;" glyph-name="uni00B2" horiz-adv-x="671" d="M109 948V1030Q246 1132 355 1256T465 1479Q465 1597 304 1597Q302 1597 301 1597Q197 1597 121 1542V1638Q209 1691 315 1692Q442 1692 503 1630T565 1481Q565 1297 287 1051H561V948H109Z" />
<glyph unicode="&#xb3;" glyph-name="uni00B3" horiz-adv-x="661" d="M109 983V1083Q195 1034 289 1034Q471 1034 471 1161Q471 1290 279 1290H217V1382H276Q434 1382 434 1488T276 1595Q190 1595 117 1554V1653Q191 1692 289 1692Q416 1692 476 1633T537 1489Q537
1394 451 1341Q573 1288 573 1165Q573 1071 507 1006T299 940Q195 940 109 983Z" />
<glyph unicode="&#xb4;" glyph-name="acute" horiz-adv-x="518" d="M123 1155L250 1395H434L240 1155H123Z" />
<glyph unicode="&#xb5;" glyph-name="uni00B5" horiz-adv-x="1253" d="M203 -430V1024H391V352Q391 262 437 210T623 158Q748 158 862 195V1024H1051V90Q838 -16 614 -16Q485 -16 391 31V-430H203Z" />
<glyph unicode="&#xb6;" glyph-name="paragraph" horiz-adv-x="940" d="M78 936Q78 1143 201 1254T561 1366H799V0H629V504H561Q325 504 202 615T78 936Z" />
<glyph unicode="&#xb7;" glyph-name="middot" horiz-adv-x="663" d="M238 471V645H424V471H238Z" />
<glyph unicode="&#xb8;" glyph-name="cedilla" horiz-adv-x="555" d="M115 -262L297 -10H442L301 -262H115Z" />
<glyph unicode="&#xb9;" glyph-name="uni00B9" horiz-adv-x="491" d="M109 1509V1616L227 1683H340V948H238V1583L109 1509Z" />
<glyph unicode="&#xba;" glyph-name="ordmasculine" horiz-adv-x="864" d="M156 1090Q156 1205 200 1274T299 1363T424 1384Q537 1384 615 1320T694 1090Q694 926 616 861T424 795Q313 795 235 860T156 1090ZM260 1210T260 1090T303 929T424 889T545 929T588 1089T545
1251T424 1292T303 1251Z" />
<glyph unicode="&#xbb;" glyph-name="guillemotright" horiz-adv-x="1212" d="M137 131L502 522L137 911H360L707 522L360 131H137ZM571 131L936 522L571 911H795L1141 522L795 131H571Z" />
<glyph unicode="&#xbc;" glyph-name="onequarter" horiz-adv-x="1447" d="M106 1206V1313L225 1380H336V645H233V1280L106 1206ZM145 -45L1038 1403H1169L274 -45H145ZM799 231V324L1122 737H1237V324H1341V231H1237V2H1135V231H799ZM920 324H1135V590L920 324Z" />
<glyph unicode="&#xbd;" glyph-name="onehalf" horiz-adv-x="1482" d="M106 1206V1313L225 1380H336V645H233V1280L106 1206ZM145 -45L1038 1403H1169L274 -45H145ZM895 2V84Q1030 186 1139 310T1249 532Q1249 651 1085 651Q993 651 905 596V692Q993 745 1100
745Q1227 745 1288 684T1350 535Q1350 347 1071 104H1348V2H895Z" />
<glyph unicode="&#xbe;" glyph-name="threequarters" horiz-adv-x="1662" d="M135 680V780Q221 731 315 731Q497 731 498 858Q498 987 305 987H244V1079H303Q463 1079 463 1185T303 1292Q217 1292 143 1251V1350Q225 1391 315 1391Q442 1391 502 1331T563 1186Q563
1091 477 1038Q600 985 600 860Q600 768 534 703T326 637Q226 637 135 680ZM369 -45L1264 1403H1393L500 -45H369ZM1024 231V324L1346 737H1462V324H1567V231H1462V2H1360V231H1024ZM1145 324H1360V590L1145 324Z" />
<glyph unicode="&#xbf;" glyph-name="questiondown" horiz-adv-x="1052" d="M174 37Q174 119 205 183T281 290L371 373Q416 414 446 473T477 608V678H657V602Q657 498 627 418T551 291T462 205T387 124T356 35Q356 -184 614 -184Q780 -184 920 -61V-264Q770 -360
598 -360Q483 -360 398 -327T266 -235T197 -109T174 37ZM467 836V1022H668V836H467Z" />
<glyph unicode="&#xc0;" glyph-name="Agrave" horiz-adv-x="1359" d="M43 0L588 1366H774L1317 0H1112L965 385H395L248 0H43ZM424 1722H606L735 1483H618L424 1722ZM463 561H897L680 1128L463 561Z" />
<glyph unicode="&#xc1;" glyph-name="Aacute" horiz-adv-x="1359" d="M43 0L588 1366H774L1317 0H1112L965 385H395L248 0H43ZM463 561H897L680 1128L463 561ZM625 1483L754 1722H936L741 1483H625Z" />
<glyph unicode="&#xc2;" glyph-name="Acircumflex" horiz-adv-x="1359" d="M43 0L588 1366H774L1317 0H1112L965 385H395L248 0H43ZM451 1483L631 1733H729L911 1483H766L680 1616L594 1483H451ZM463 561H897L680 1128L463 561Z" />
<glyph unicode="&#xc3;" glyph-name="Atilde" horiz-adv-x="1359" d="M43 0L588 1366H774L1317 0H1112L965 385H395L248 0H43ZM369 1481V1616Q426 1684 492 1690Q503 1691 514 1691Q569 1691 620 1665L742 1604Q793 1580 846 1580Q857 1580 868 1581Q934 1587
991 1655V1520Q934 1452 868 1446Q857 1445 846 1445Q793 1445 742 1470L620 1530Q569 1556 515 1556Q504 1556 492 1554Q426 1548 369 1481ZM463 561H897L680 1128L463 561Z" />
<glyph unicode="&#xc4;" glyph-name="Adieresis" horiz-adv-x="1359" d="M43 0L588 1366H774L1317 0H1112L965 385H395L248 0H43ZM434 1483V1657H623V1483H434ZM463 561H897L680 1128L463 561ZM737 1483V1657H926V1483H737Z" />
<glyph unicode="&#xc5;" glyph-name="Aring" horiz-adv-x="1359" d="M43 0L588 1366H774L1317 0H1112L965 385H395L248 0H43ZM463 561H897L680 1128L463 561ZM502 1599Q502 1681 549 1727T680 1774T811 1728T858 1599Q858 1515 811 1469T680 1423T549 1469T502
1599ZM600 1651T600 1600T617 1528T680 1507T742 1527T760 1599T743 1671T680 1692T618 1672Z" />
<glyph unicode="&#xc6;" glyph-name="AE" horiz-adv-x="2031" d="M51 0L909 1366H1892V1188H1192V772H1808V594H1192V178H1892V0H1001V414H520L262 0H51ZM633 592H1001V1180L633 592Z" />
<glyph unicode="&#xc7;" glyph-name="Ccedilla" horiz-adv-x="1286" d="M125 684Q125 852 164 979T264 1181T413 1304T583 1368T760 1384Q973 1384 1178 1303V1126Q985 1212 782 1212Q540 1212 431 1088T322 684Q322 408 431 282T782 156Q985 156 1178 242V66Q1002
-6 817 -14L680 -262H492L676 -12Q565 -2 475 35T302 147T172 360T125 684Z" />
<glyph unicode="&#xc8;" glyph-name="Egrave" horiz-adv-x="1187" d="M178 0V1366H1069V1188H369V772H985V594H369V178H1069V0H178ZM412 1722H596L723 1483H606L412 1722Z" />
<glyph unicode="&#xc9;" glyph-name="Eacute" horiz-adv-x="1187" d="M178 0V1366H1069V1188H369V772H985V594H369V178H1069V0H178ZM582 1483L709 1722H893L698 1483H582Z" />
<glyph unicode="&#xca;" glyph-name="Ecircumflex" horiz-adv-x="1187" d="M178 0V1366H1069V1188H369V772H985V594H369V178H1069V0H178ZM416 1483L596 1733H694L877 1483H731L645 1616L559 1483H416Z" />
<glyph unicode="&#xcb;" glyph-name="Edieresis" horiz-adv-x="1187" d="M178 0V1366H1069V1188H369V772H985V594H369V178H1069V0H178ZM397 1483V1657H584V1483H397ZM700 1483V1657H887V1483H700Z" />
<glyph unicode="&#xcc;" glyph-name="Igrave" horiz-adv-x="544" d="M14 1722H199L326 1483H209L14 1722ZM178 0H367V1366H178V0Z" />
<glyph unicode="&#xcd;" glyph-name="Iacute" horiz-adv-x="544" d="M178 0V1366H367V0H178ZM217 1483L344 1722H528L334 1483H217Z" />
<glyph unicode="&#xce;" glyph-name="Icircumflex" horiz-adv-x="544" d="M41 1483L221 1733H319L502 1483H356L270 1616L184 1483H41ZM178 0H367V1366H178V0Z" />
<glyph unicode="&#xcf;" glyph-name="Idieresis" horiz-adv-x="544" d="M27 1483V1657H213V1483H27ZM178 0H367V1366H178V0ZM330 1483V1657H516V1483H330Z" />
<glyph unicode="&#xd0;" glyph-name="Eth" horiz-adv-x="1480" d="M109 606V760H272V1366H709Q1024 1366 1188 1192T1352 682T1188 173T709 0H272V606H109ZM463 168H678Q930 168 1046 292T1163 682Q1163 950 1047 1074T678 1198H463V760H768V606H463V168Z" />
<glyph unicode="&#xd1;" glyph-name="Ntilde" horiz-adv-x="1511" d="M178 0V1366H395L1159 279V1366H1350V0H1139L369 1094V0H178ZM453 1481V1616Q510 1684 576 1690Q587 1691 598 1691Q653 1691 704 1665L826 1604Q877 1580 930 1580Q941 1580 952 1581Q1018
1587 1075 1655V1520Q1018 1452 952 1446Q941 1445 930 1445Q877 1445 826 1470L704 1530Q653 1556 599 1556Q588 1556 576 1554Q510 1548 453 1481Z" />
<glyph unicode="&#xd2;" glyph-name="Ograve" horiz-adv-x="1529" d="M125 516T125 684T164 979T264 1181T413 1304T583 1368T760 1384T937 1368T1107 1305T1255 1182T1356 979T1395 684T1356 389T1256 187T1107 64T937 0T760 -16T583 0T413 63T265 186T164 389ZM315
819T315 684T343 450T412 295T515 207T633 165T759 156T886 165T1004 207T1108 295T1176 449T1204 684T1177 918T1108 1073T1005 1161T887 1203T760 1212T633 1203T516 1161T412 1073T343 919ZM524 1722H709L836 1483H719L524 1722Z" />
<glyph unicode="&#xd3;" glyph-name="Oacute" horiz-adv-x="1529" d="M125 516T125 684T164 979T264 1181T413 1304T583 1368T760 1384T937 1368T1107 1305T1255 1182T1356 979T1395 684T1356 389T1256 187T1107 64T937 0T760 -16T583 0T413 63T265 186T164 389ZM315
819T315 684T343 450T412 295T515 207T633 165T759 156T886 165T1004 207T1108 295T1176 449T1204 684T1177 918T1108 1073T1005 1161T887 1203T760 1212T633 1203T516 1161T412 1073T343 919ZM684 1483L811 1722H995L801 1483H684Z" />
<glyph unicode="&#xd4;" glyph-name="Ocircumflex" horiz-adv-x="1529" d="M125 516T125 684T164 979T264 1181T413 1304T583 1368T760 1384T937 1368T1107 1305T1255 1182T1356 979T1395 684T1356 389T1256 187T1107 64T937 0T760 -16T583 0T413 63T265 186T164
389ZM315 819T315 684T343 450T412 295T515 207T633 165T759 156T886 165T1004 207T1108 295T1176 449T1204 684T1177 918T1108 1073T1005 1161T887 1203T760 1212T633 1203T516 1161T412 1073T343 919ZM528 1483L709 1733H807L989 1483H844L758 1616L672 1483H528Z"
/>
<glyph unicode="&#xd5;" glyph-name="Otilde" horiz-adv-x="1529" d="M125 516T125 684T164 979T264 1181T413 1304T583 1368T760 1384T937 1368T1107 1305T1255 1182T1356 979T1395 684T1356 389T1256 187T1107 64T937 0T760 -16T583 0T413 63T265 186T164 389ZM315
819T315 684T343 450T412 295T515 207T633 165T759 156T886 165T1004 207T1108 295T1176 449T1204 684T1177 918T1108 1073T1005 1161T887 1203T760 1212T633 1203T516 1161T412 1073T343 919ZM449 1481V1616Q506 1684 572 1690Q583 1691 594 1691Q649 1691 700
1665L822 1604Q873 1580 926 1580Q937 1580 948 1581Q1014 1587 1071 1655V1520Q1014 1452 948 1446Q937 1445 926 1445Q873 1445 822 1470L700 1530Q649 1556 595 1556Q584 1556 572 1554Q506 1548 449 1481Z" />
<glyph unicode="&#xd6;" glyph-name="Odieresis" horiz-adv-x="1529" d="M125 516T125 684T164 979T264 1181T413 1304T583 1368T760 1384T937 1368T1107 1305T1255 1182T1356 979T1395 684T1356 389T1256 187T1107 64T937 0T760 -16T583 0T413 63T265 186T164
389ZM315 819T315 684T343 450T412 295T515 207T633 165T759 156T886 165T1004 207T1108 295T1176 449T1204 684T1177 918T1108 1073T1005 1161T887 1203T760 1212T633 1203T516 1161T412 1073T343 919ZM514 1483V1657H700V1483H514ZM817 1483V1657H1004V1483H817Z"
/>
<glyph unicode="&#xd7;" glyph-name="multiply" horiz-adv-x="1050" d="M158 160L440 524L158 889H322L522 631L725 889H887L606 524L887 160H725L522 418L322 160H158Z" />
<glyph unicode="&#xd8;" glyph-name="Oslash" horiz-adv-x="1529" d="M88 0L256 201Q125 375 125 684Q125 852 164 979T264 1181T413 1304T583 1368T760 1384Q1004 1384 1159 1272L1241 1366H1432L1264 1167Q1395 993 1395 684Q1395 516 1356 389T1256 187T1107
64T937 0T760 -16Q516 -16 360 96L279 0H88ZM315 684Q315 475 379 348L1044 1137Q945 1212 765 1212Q762 1212 760 1212Q688 1212 633 1203T516 1161T412 1073T343 919T315 684ZM475 231Q572 156 755 156Q758 156 760 156Q832 156 887 165T1004 207T1108 295T1176
449T1204 684Q1204 893 1141 1020L475 231Z" />
<glyph unicode="&#xd9;" glyph-name="Ugrave" horiz-adv-x="1476" d="M178 563V1366H369V547Q369 346 459 250T737 154T1016 250T1106 547V1366H1296V563Q1296 287 1150 135T738 -18T325 134T178 563ZM498 1722H682L809 1483H692L498 1722Z" />
<glyph unicode="&#xda;" glyph-name="Uacute" horiz-adv-x="1476" d="M178 563V1366H369V547Q369 346 459 250T737 154T1016 250T1106 547V1366H1296V563Q1296 287 1150 135T738 -18T325 134T178 563ZM666 1483L793 1722H977L782 1483H666Z" />
<glyph unicode="&#xdb;" glyph-name="Ucircumflex" horiz-adv-x="1476" d="M178 563V1366H369V547Q369 346 459 250T737 154T1016 250T1106 547V1366H1296V563Q1296 287 1150 135T738 -18T325 134T178 563ZM506 1483L686 1733H784L967 1483H821L735 1616L649 1483H506Z" />
<glyph unicode="&#xdc;" glyph-name="Udieresis" horiz-adv-x="1476" d="M178 563V1366H369V547Q369 346 459 250T737 154T1016 250T1106 547V1366H1296V563Q1296 287 1150 135T738 -18T325 134T178 563ZM492 1483V1657H678V1483H492ZM795 1483V1657H981V1483H795Z" />
<glyph unicode="&#xdd;" glyph-name="Yacute" horiz-adv-x="1275" d="M25 1366H254L637 807L1020 1366H1251L731 612V0H543V610L25 1366ZM561 1483L688 1722H872L678 1483H561Z" />
<glyph unicode="&#xde;" glyph-name="Thorn" horiz-adv-x="1187" d="M176 0V1366H367V1161H598Q825 1161 950 1049T1075 731T950 414T598 301H367V0H176ZM367 469H582Q764 469 825 539T887 729V731V733Q887 852 826 922T582 993H367V469Z" />
<glyph unicode="&#xdf;" glyph-name="germandbls" horiz-adv-x="1255" d="M180 0V862Q180 1016 219 1124T325 1286T462 1361T616 1384Q852 1384 963 1270T1075 993Q1075 805 887 713Q1141 639 1141 397Q1141 211 991 106T590 0V174Q651 174 705 184T818 217T911
288T946 406Q946 623 590 637V780Q883 784 883 999Q883 1218 616 1219Q563 1219 524 1206T449 1156T393 1045T373 854V0H180Z" />
<glyph unicode="&#xe0;" glyph-name="agrave" horiz-adv-x="1099" d="M115 322Q115 474 243 559T596 645Q692 645 782 633Q776 762 712 818T500 874Q367 874 217 823V983Q376 1038 526 1038Q739 1038 854 928T969 610V315Q969 282 964 250T933 166T865 77T740
12T547 -16Q434 -16 349 12T221 79T153 169T121 255T115 322ZM301 324Q301 150 547 150Q548 150 550 150Q782 150 782 317V483Q708 495 604 496Q563 496 518 489T421 465T335 412T301 324ZM315 1395H500L627 1155H510L315 1395Z" />
<glyph unicode="&#xe1;" glyph-name="aacute" horiz-adv-x="1099" d="M115 322Q115 474 243 559T596 645Q692 645 782 633Q776 762 712 818T500 874Q367 874 217 823V983Q376 1038 526 1038Q739 1038 854 928T969 610V315Q969 282 964 250T933 166T865 77T740
12T547 -16Q434 -16 349 12T221 79T153 169T121 255T115 322ZM301 324Q301 150 547 150Q548 150 550 150Q782 150 782 317V483Q708 495 604 496Q563 496 518 489T421 465T335 412T301 324ZM461 1155L588 1395H772L578 1155H461Z" />
<glyph unicode="&#xe2;" glyph-name="acircumflex" horiz-adv-x="1099" d="M115 322Q115 474 243 559T596 645Q692 645 782 633Q776 762 712 818T500 874Q367 874 217 823V983Q376 1038 526 1038Q739 1038 854 928T969 610V315Q969 282 964 250T933 166T865 77T740
12T547 -16Q434 -16 349 12T221 79T153 169T121 255T115 322ZM301 324Q301 150 547 150Q548 150 550 150Q782 150 782 317V483Q708 495 604 496Q563 496 518 489T421 465T335 412T301 324ZM338 1155L518 1405H616L799 1155H653L567 1288L481 1155H338Z" />
<glyph unicode="&#xe3;" glyph-name="atilde" horiz-adv-x="1099" d="M115 322Q115 474 243 559T596 645Q692 645 782 633Q776 762 712 818T500 874Q367 874 217 823V983Q376 1038 526 1038Q739 1038 854 928T969 610V315Q969 282 964 250T933 166T865 77T740
12T547 -16Q434 -16 349 12T221 79T153 169T121 255T115 322ZM250 1153V1288Q307 1356 374 1362Q384 1363 395 1363Q450 1363 500 1338L622 1277Q673 1252 726 1252Q738 1252 750 1254Q815 1260 872 1327V1192Q815 1124 750 1118Q738 1117 727 1117Q674 1117 622
1142L500 1202Q450 1228 395 1228Q384 1228 374 1227Q307 1221 250 1153ZM301 324Q301 150 547 150Q548 150 550 150Q782 150 782 317V483Q708 495 604 496Q563 496 518 489T421 465T335 412T301 324Z" />
<glyph unicode="&#xe4;" glyph-name="adieresis" horiz-adv-x="1099" d="M115 322Q115 474 243 559T596 645Q692 645 782 633Q776 762 712 818T500 874Q367 874 217 823V983Q376 1038 526 1038Q739 1038 854 928T969 610V315Q969 282 964 250T933 166T865 77T740
12T547 -16Q434 -16 349 12T221 79T153 169T121 255T115 322ZM301 324Q301 150 547 150Q548 150 550 150Q782 150 782 317V483Q708 495 604 496Q563 496 518 489T421 465T335 412T301 324ZM324 1155V1329H510V1155H324ZM627 1155V1329H813V1155H627Z" />
<glyph unicode="&#xe5;" glyph-name="aring" horiz-adv-x="1099" d="M115 322Q115 474 243 559T596 645Q692 645 782 633Q776 762 712 818T500 874Q367 874 217 823V983Q376 1038 526 1038Q739 1038 854 928T969 610V315Q969 282 964 250T933 166T865 77T740 12T547
-16Q434 -16 349 12T221 79T153 169T121 255T115 322ZM301 324Q301 150 547 150Q548 150 550 150Q782 150 782 317V483Q708 495 604 496Q563 496 518 489T421 465T335 412T301 324ZM379 1188T379 1272T426 1402T557 1448Q643 1448 689 1402T735 1272T689 1142T557
1096Q473 1096 426 1142ZM477 1323T477 1272T494 1201T557 1180T619 1200T637 1272T620 1343T557 1364T495 1344Z" />
<glyph unicode="&#xe6;" glyph-name="ae" horiz-adv-x="1802" d="M111 322Q111 474 239 559T592 645Q688 645 778 633Q772 762 708 818T496 874Q363 874 213 823V983Q373 1038 522 1038Q766 1038 879 895Q992 1038 1227 1038Q1432 1038 1554 904T1677 545Q1677
471 1671 403H967Q1002 143 1255 143Q1452 143 1608 219V49Q1450 -18 1251 -18Q1248 -18 1245 -18Q1016 -18 895 113Q789 -16 543 -16Q430 -16 345 12T217 79T149 169T117 255T111 322ZM297 324Q297 150 543 150Q544 150 546 150Q778 150 778 317V483Q704 495 600
496Q559 496 514 489T417 465T331 412T297 324ZM965 573H1489Q1462 870 1227 870Q1098 870 1038 804T965 573Z" />
<glyph unicode="&#xe7;" glyph-name="ccedilla" horiz-adv-x="966" d="M119 512Q119 768 243 903T600 1038Q756 1038 901 981V803Q759 870 616 870Q475 870 395 798T315 512Q315 399 338 325T408 214T503 166T616 154Q763 154 901 219V41Q797 0 678 -12L539 -266H350L532
-12Q331 6 225 140T119 512Z" />
<glyph unicode="&#xe8;" glyph-name="egrave" horiz-adv-x="1136" d="M129 500Q129 1040 580 1040Q581 1040 582 1040Q787 1040 909 906T1032 547Q1032 473 1026 406H322Q357 146 610 145Q811 145 963 219V51Q805 -16 606 -16Q603 -16 600 -16Q510 -16 434 6T286
81T171 240T129 500ZM319 575H844Q840 626 827 672T786 767T706 843T582 872Q453 872 392 806T319 575ZM346 1395H530L657 1155H541L346 1395Z" />
<glyph unicode="&#xe9;" glyph-name="eacute" horiz-adv-x="1136" d="M129 500Q129 1040 580 1040Q581 1040 582 1040Q787 1040 909 906T1032 547Q1032 473 1026 406H322Q357 146 610 145Q811 145 963 219V51Q805 -16 606 -16Q603 -16 600 -16Q510 -16 434 6T286
81T171 240T129 500ZM319 575H844Q840 626 827 672T786 767T706 843T582 872Q453 872 392 806T319 575ZM506 1155L633 1395H817L623 1155H506Z" />
<glyph unicode="&#xea;" glyph-name="ecircumflex" horiz-adv-x="1136" d="M129 500Q129 1040 580 1040Q581 1040 582 1040Q787 1040 909 906T1032 547Q1032 473 1026 406H322Q357 146 610 145Q811 145 963 219V51Q805 -16 606 -16Q603 -16 600 -16Q510 -16 434
6T286 81T171 240T129 500ZM319 575H844Q840 626 827 672T786 767T706 843T582 872Q453 872 392 806T319 575ZM350 1155L530 1405H629L811 1155H666L580 1288L494 1155H350Z" />
<glyph unicode="&#xeb;" glyph-name="edieresis" horiz-adv-x="1136" d="M129 500Q129 1040 580 1040Q581 1040 582 1040Q787 1040 909 906T1032 547Q1032 473 1026 406H322Q357 146 610 145Q811 145 963 219V51Q805 -16 606 -16Q603 -16 600 -16Q510 -16 434
6T286 81T171 240T129 500ZM319 575H844Q840 626 827 672T786 767T706 843T582 872Q453 872 392 806T319 575ZM336 1155V1329H522V1155H336ZM639 1155V1329H825V1155H639Z" />
<glyph unicode="&#xec;" glyph-name="igrave" horiz-adv-x="589" d="M41 1395H225L352 1155H236L41 1395ZM201 0H389V1022H201V0Z" />
<glyph unicode="&#xed;" glyph-name="iacute" horiz-adv-x="589" d="M201 0V1022H389V0H201ZM236 1155L362 1395H547L352 1155H236Z" />
<glyph unicode="&#xee;" glyph-name="icircumflex" horiz-adv-x="589" d="M63 1155L244 1405H342L524 1155H379L293 1288L207 1155H63ZM201 0H389V1022H201V0Z" />
<glyph unicode="&#xef;" glyph-name="idieresis" horiz-adv-x="589" d="M49 1155V1329H236V1155H49ZM201 0H389V1022H201V0ZM352 1155V1329H539V1155H352Z" />
<glyph unicode="&#xf0;" glyph-name="eth" horiz-adv-x="1212" d="M119 453Q119 635 227 763T575 891Q745 891 860 819Q819 1012 698 1112L481 981L414 1094L565 1184Q502 1206 416 1206Q412 1206 408 1206Q334 1206 252 1188V1360Q333 1382 430 1382Q434 1382
438 1382Q622 1382 760 1303L938 1411L1006 1298L870 1217Q1063 1020 1063 627Q1063 -16 590 -16Q361 -16 240 122T119 453ZM309 453Q309 410 318 368T353 274T440 189T590 156Q629 156 654 159T725 185T797 254T847 392T872 616Q766 716 590 717Q309 717 309 453Z"
/>
<glyph unicode="&#xf1;" glyph-name="ntilde" horiz-adv-x="1198" d="M168 0V934Q381 1040 604 1040Q797 1040 906 939T1016 659V0H827V672Q827 762 781 814T596 866Q471 866 356 829V0H168ZM281 1153V1288Q338 1356 404 1362Q415 1363 426 1363Q481 1363 532
1338L654 1277Q704 1252 757 1252Q769 1252 780 1254Q846 1260 903 1327V1192Q846 1124 780 1118Q769 1117 758 1117Q705 1117 654 1142L532 1202Q481 1228 426 1228Q415 1228 404 1227Q338 1221 281 1153Z" />
<glyph unicode="&#xf2;" glyph-name="ograve" horiz-adv-x="1155" d="M100 354T100 510T143 774T260 937T411 1013T581 1036T751 1014T903 937T1020 775T1063 510T1020 246T903 83T752 7T582 -16T412 6T260 83T143 245ZM289 625T289 510T311 321T379 210T470 162T581
150T693 162T784 210T851 320T874 510T852 699T784 810T693 858T582 870T470 858T379 810T312 700ZM319 1395H504L631 1155H514L319 1395Z" />
<glyph unicode="&#xf3;" glyph-name="oacute" horiz-adv-x="1155" d="M100 354T100 510T143 774T260 937T411 1013T581 1036T751 1014T903 937T1020 775T1063 510T1020 246T903 83T752 7T582 -16T412 6T260 83T143 245ZM289 625T289 510T311 321T379 210T470 162T581
150T693 162T784 210T851 320T874 510T852 699T784 810T693 858T582 870T470 858T379 810T312 700ZM532 1155L659 1395H844L649 1155H532Z" />
<glyph unicode="&#xf4;" glyph-name="ocircumflex" horiz-adv-x="1155" d="M100 354T100 510T143 774T260 937T411 1013T581 1036T751 1014T903 937T1020 775T1063 510T1020 246T903 83T752 7T582 -16T412 6T260 83T143 245ZM289 625T289 510T311 321T379 210T470
162T581 150T693 162T784 210T851 320T874 510T852 699T784 810T693 858T582 870T470 858T379 810T312 700ZM350 1155L530 1405H629L811 1155H666L580 1288L494 1155H350Z" />
<glyph unicode="&#xf5;" glyph-name="otilde" horiz-adv-x="1155" d="M100 354T100 510T143 774T260 937T411 1013T581 1036T751 1014T903 937T1020 775T1063 510T1020 246T903 83T752 7T582 -16T412 6T260 83T143 245ZM270 1153V1288Q327 1356 394 1362Q405 1363
416 1363Q471 1363 522 1338L644 1277Q694 1252 747 1252Q759 1252 770 1254Q836 1260 893 1327V1192Q836 1124 770 1118Q759 1117 748 1117Q695 1117 644 1142L522 1202Q471 1228 416 1228Q405 1228 394 1227Q328 1221 270 1153ZM289 625T289 510T311 321T379
210T470 162T581 150T693 162T784 210T851 320T874 510T852 699T784 810T693 858T582 870T470 858T379 810T312 700Z" />
<glyph unicode="&#xf6;" glyph-name="odieresis" horiz-adv-x="1155" d="M100 354T100 510T143 774T260 937T411 1013T581 1036T751 1014T903 937T1020 775T1063 510T1020 246T903 83T752 7T582 -16T412 6T260 83T143 245ZM289 625T289 510T311 321T379 210T470
162T581 150T693 162T784 210T851 320T874 510T852 699T784 810T693 858T582 870T470 858T379 810T312 700ZM336 1155V1329H522V1155H336ZM639 1155V1329H825V1155H639Z" />
<glyph unicode="&#xf7;" glyph-name="divide" horiz-adv-x="1286" d="M227 453V604H1059V453H227ZM549 143V317H735V143H549ZM549 739V913H735V739H549Z" />
<glyph unicode="&#xf8;" glyph-name="oslash" horiz-adv-x="1175" d="M55 0L190 160Q100 291 100 510Q100 666 143 774T260 937T411 1013T582 1036Q752 1036 866 963L918 1022H1108L973 860Q1063 729 1063 510Q1063 354 1020 246T903 83T752 7T582 -16Q410 -16
295 57L246 0H55ZM289 510Q289 391 315 311L756 831Q695 870 582 870Q516 870 470 858T379 810T312 700T289 510ZM406 188Q465 150 576 150Q579 150 582 150Q648 150 693 162T784 210T851 320T874 510Q874 635 846 711L406 188Z" />
<glyph unicode="&#xf9;" glyph-name="ugrave" horiz-adv-x="1208" d="M168 430V1022H356V416Q356 277 414 212T600 147T786 211T846 416V1022H1032V430Q1032 217 919 100T600 -18T282 99T168 430ZM358 1395H543L670 1155H553L358 1395Z" />
<glyph unicode="&#xfa;" glyph-name="uacute" horiz-adv-x="1208" d="M168 430V1022H354V416Q354 277 413 212T600 147T785 211T844 416V1022H1032V430Q1032 217 919 100T600 -18T282 99T168 430ZM528 1155L655 1395H840L645 1155H528Z" />
<glyph unicode="&#xfb;" glyph-name="ucircumflex" horiz-adv-x="1208" d="M168 430V1022H354V416Q354 277 413 212T600 147T785 211T844 416V1022H1032V430Q1032 217 919 100T600 -18T282 99T168 430ZM369 1155L549 1405H647L829 1155H684L598 1288L512 1155H369Z" />
<glyph unicode="&#xfc;" glyph-name="udieresis" horiz-adv-x="1208" d="M168 430V1022H354V416Q354 277 413 212T600 147T785 211T844 416V1022H1032V430Q1032 217 919 100T600 -18T282 99T168 430ZM354 1155V1329H541V1155H354ZM657 1155V1329H844V1155H657Z" />
<glyph unicode="&#xfd;" glyph-name="yacute" horiz-adv-x="1073" d="M63 1022H264L539 256L809 1022H1010L590 -109Q481 -403 273 -403Q273 -403 272 -403Q204 -403 129 -387V-219Q190 -235 244 -236Q371 -236 449 0L63 1022ZM467 1155L594 1395H778L584 1155H467Z" />
<glyph unicode="&#xfe;" glyph-name="thorn" horiz-adv-x="1142" d="M170 -377V1397H356V993Q462 1024 575 1024Q663 1024 739 1003T888 928T1002 768T1044 510T1003 252T888 92T740 18T575 -4Q462 -4 356 27V-377H170ZM356 205Q460 162 575 162Q636 162 681 174T770
220T835 326T858 510T836 693T770 800T682 846T575 858Q460 858 356 815V205Z" />
<glyph unicode="&#xff;" glyph-name="ydieresis" horiz-adv-x="1069" d="M63 1022H264L539 256L809 1022H1010L590 -109Q481 -403 273 -403Q273 -403 272 -403Q204 -403 129 -387V-219Q190 -235 244 -236Q371 -236 449 0L63 1022ZM291 1155V1329H477V1155H291ZM594
1155V1329H780V1155H594Z" />
<glyph unicode="&#x2013;" glyph-name="endash" horiz-adv-x="1146" d="M141 516V676H1001V516H141Z" />
<glyph unicode="&#x2014;" glyph-name="emdash" horiz-adv-x="1824" d="M162 516V676H1663V516H162Z" />
<glyph unicode="&#x2018;" glyph-name="quoteleft" horiz-adv-x="552" d="M96 1384H289L440 983H268L96 1384Z" />
<glyph unicode="&#x2019;" glyph-name="quoteright" horiz-adv-x="552" d="M96 983L248 1384H440L268 983H96Z" />
<glyph unicode="&#x201a;" glyph-name="quotesinglbase" horiz-adv-x="643" d="M147 -229L299 172H492L319 -229H147Z" />
<glyph unicode="&#x201c;" glyph-name="quotedblleft" horiz-adv-x="843" d="M96 1384H289L440 983H268L96 1384ZM401 1384H594L745 983H573L401 1384Z" />
<glyph unicode="&#x201d;" glyph-name="quotedblright" horiz-adv-x="827" d="M96 983L248 1384H440L268 983H96ZM401 983L553 1384H745L573 983H401Z" />
<glyph unicode="&#x201e;" glyph-name="quotedblbase" horiz-adv-x="940" d="M147 -229L299 172H492L319 -229H147ZM453 -229L604 172H797L625 -229H453Z" />
<glyph unicode="&#x2022;" glyph-name="bullet" horiz-adv-x="864" d="M170 580T170 684T243 861T422 934Q524 934 598 861T672 684T598 506T422 432Q318 432 244 506Z" />
<glyph unicode="&#x2039;" glyph-name="guilsinglleft" horiz-adv-x="733" d="M63 522L410 911H633L268 522L633 131H410L63 522Z" />
<glyph unicode="&#x203a;" glyph-name="guilsinglright" horiz-adv-x="792" d="M137 131L502 522L137 911H360L707 522L360 131H137Z" />
</font>
</defs>
</svg>
